HIERARCHY
ROOT Hips
{
	OFFSET 0.00000 0.00000 0.00000
	CHANNELS 6 Xposition Yposition Zposition Zrotation Yrotation Xrotation 
	JOINT LHipJoint
	{
		OFFSET 0 0 0
		CHANNELS 3 Zrotation Yrotation Xrotation
		JOINT LeftHip
		{
			OFFSET 1.75344 -1.53157 0.77399
			CHANNELS 3 Zrotation Yrotation Xrotation
			JOINT LeftKnee
			{
				OFFSET 2.25415 -6.19323 0.00000
				CHANNELS 3 Zrotation Yrotation Xrotation
				JOINT LeftAnkle
				{
					OFFSET 2.30342 -6.32861 0.00000
					CHANNELS 3 Zrotation Yrotation Xrotation
					JOINT LeftToe
					{
						OFFSET 0.10958 -0.30108 1.49206
						CHANNELS 3 Zrotation Yrotation Xrotation
						End Site
						{
							OFFSET 0.00000 -0.00000 0.77783
						}
					}
				}
			}
		}
	}
	JOINT RHipJoint
	{
		OFFSET 0 0 0
		CHANNELS 3 Zrotation Yrotation Xrotation
		JOINT RightHip
		{
			OFFSET -1.81912 -1.53156 0.77399
			CHANNELS 3 Zrotation Yrotation Xrotation
			JOINT RightKnee
			{
				OFFSET -2.22882 -6.12365 0.00000
				CHANNELS 3 Zrotation Yrotation Xrotation
				JOINT RightAnkle
				{
					OFFSET -2.21943 -6.09785 0.00000
					CHANNELS 3 Zrotation Yrotation Xrotation
					JOINT RightToe
					{
						OFFSET -0.18931 -0.52012 1.59379
						CHANNELS 3 Zrotation Yrotation Xrotation
						End Site
						{
							OFFSET -0.00000 -0.00000 0.84686
						}
					}
				}
			}
		}
	}
	JOINT lowerback
	{
		OFFSET 0 0 0
		CHANNELS 3 Zrotation Yrotation Xrotation
		JOINT Chest
		{
			OFFSET -0.00200 1.66634 -0.14248
			CHANNELS 3 Zrotation Yrotation Xrotation
			JOINT Chest2
			{
				OFFSET -0.00875 1.64542 0.09514
				CHANNELS 3 Zrotation Yrotation Xrotation
				JOINT lowerneck
				{
					OFFSET 0 0 0
					CHANNELS 3 Zrotation Yrotation Xrotation
					JOINT Neck
					{
						OFFSET 0.02257 1.59605 0.00839
						CHANNELS 3 Zrotation Yrotation Xrotation
						JOINT Head
						{
							OFFSET -0.10214 1.57530 -0.23335
							CHANNELS 3 Zrotation Yrotation Xrotation
							End Site
							{
								OFFSET -0.03588 1.60717 -0.08062
							}
						}
					}
				}
				JOINT LeftCollar
				{
					OFFSET 0 0 0
					CHANNELS 3 Zrotation Yrotation Xrotation
					JOINT LeftShoulder
					{
						OFFSET 2.54983 1.10186 0.40078
CHANNELS 3 Zrotation Xrotation Yrotation
						JOINT LeftElbow
						{
OFFSET 0 -4.288400 0.000000
CHANNELS 3 Zrotation Xrotation Yrotation
							JOINT LeftWrist
							{
OFFSET 0 -3.065520 -0.000000
CHANNELS 3 Zrotation Xrotation Yrotation
								JOINT lhand
								{
									OFFSET 0 0 0
CHANNELS 3 Zrotation Xrotation Yrotation
									JOINT LFingers
									{
OFFSET 0 -0.753040 0.000000
CHANNELS 3 Zrotation Xrotation Yrotation
										End Site
										{
OFFSET 0 -0.607120 0.000000
										}
									}
								}
								JOINT LThumb
								{
OFFSET 0 0.000000 0.000000
CHANNELS 3 Zrotation Xrotation Yrotation
									End Site
									{
OFFSET 0 -0.616390 0.616390
									}
								}
							}
						}
					}
				}
				JOINT RightCollar
				{
					OFFSET 0 0 0
					CHANNELS 3 Zrotation Yrotation Xrotation
					JOINT RightShoulder
					{
						OFFSET -2.60909 1.35448 0.21802
CHANNELS 3 Zrotation Xrotation Yrotation
						JOINT RightElbow
						{
OFFSET 0 -4.521720 -0.000000
CHANNELS 3 Zrotation Xrotation Yrotation
							JOINT RightWrist
							{
OFFSET 0 -2.891400 0.000000
CHANNELS 3 Zrotation Xrotation Yrotation
								JOINT rhand
								{
									OFFSET 0 0 0
CHANNELS 3 Zrotation Xrotation Yrotation
									JOINT RFingers
									{
OFFSET 0 -0.680540 0.000000
CHANNELS 3 Zrotation Xrotation Yrotation
										End Site
										{
OFFSET 0 -0.548670 0.000000
										}
									}
								}
								JOINT RThumb
								{
OFFSET 0 0.000000 0.000000
CHANNELS 3 Zrotation Xrotation Yrotation
									End Site
									{
OFFSET 0 -0.557050 0.557050
									}
								}
							}
						}
					}
				}
			}
		}
	}
}
MOTION
Frames: 12
Frame Time: 0.008333333333333333
8.543189 21.033171 13.373680 -179.296548 -4.092172 180.333960 0.000000 0.000000 0.000000 -20.128716 -30.915859 -5.592784 1.577324 7.923404 22.481807 4.551811 5.667694 -42.511626 12.412107 18.559488 67.289304 0.000000 0.000000 0.000000 23.284008 35.145617 -0.805842 -0.815620 -5.762598 16.097143 -7.637753 0.505422 -52.867023 -12.353245 -18.536019 67.104208 2.659000 0.091845 15.326171 1.467493 0.760335 -2.527879 -0.086825 0.224524 -11.407087 -6.605056 -3.064946 -7.532606 3.300877 -3.681208 6.785403 2.078865 -1.868335 3.801773 0.000000 0.000000 0.000000 151.458654 -31.863493 103.664240 17.500341 -27.512563 4.316017 26.578084 -30.598698 49.176597 0.000000 0.000000 0.000000 -7.125000 0.000000 0.000000 -7.026213 -22.010188 -9.198474 0.000000 0.000000 0.000000 -144.548054 -37.355693 -88.775342 -21.527035 -32.438412 -6.330337 -12.919895 9.600326 36.164468 0.000000 0.000000 0.000000 7.125000 0.000000 0.000000 26.684359 64.948272 -13.313071
8.537568 20.980914 13.305239 -179.383643 -4.126516 180.065880 0.000000 0.000000 0.000000 -20.161948 -30.186978 -5.785752 1.540571 7.835012 22.214221 4.274033 6.380083 -41.575878 12.374922 18.544663 67.172313 0.000000 0.000000 0.000000 23.033223 35.713650 -0.824126 -0.834460 -5.827394 16.284428 -7.789459 1.240666 -53.261669 -12.368934 -18.542258 67.153624 2.724599 0.046136 15.606914 1.484480 0.721606 -2.488038 -0.096276 0.200372 -11.527661 -6.754168 -3.003238 -7.540019 3.436832 -3.595225 6.856809 2.158795 -1.825405 3.832720 0.000000 0.000000 0.000000 151.520362 -31.937678 102.933320 17.608623 -27.653089 4.366050 25.730852 -30.132893 49.072392 0.000000 0.000000 0.000000 -7.125000 0.000000 0.000000 -7.362240 -21.674964 -9.620422 0.000000 0.000000 0.000000 -145.353962 -37.705680 -88.728027 -21.525306 -32.436435 -6.329410 -12.719885 9.544177 35.880204 0.000000 0.000000 0.000000 7.125000 0.000000 0.000000 26.571876 64.645415 -13.067413
8.533308 20.919460 13.234567 -179.592104 -4.121293 179.821746 0.000000 0.000000 0.000000 -20.330914 -29.269789 -6.001742 1.500498 7.736714 21.917518 3.978948 6.967896 -40.486546 12.317164 18.521457 66.990556 0.000000 0.000000 0.000000 22.655086 36.243913 -0.860968 -0.854986 -5.896654 16.484993 -7.906987 1.729205 -53.588285 -12.371290 -18.543218 67.161024 2.643471 0.093110 15.635184 1.447859 0.761682 -2.367540 -0.101427 0.225039 -11.407627 -6.727762 -2.987791 -7.368104 3.478307 -3.590878 6.750683 2.168899 -1.820953 3.761567 0.000000 0.000000 0.000000 151.725150 -32.003972 102.495202 17.736770 -27.818595 4.425771 25.003516 -29.600364 48.940866 0.000000 0.000000 0.000000 -7.125000 0.000000 0.000000 -7.641013 -21.353075 -9.965306 0.000000 0.000000 0.000000 -146.049988 -37.784417 -88.643540 -21.542407 -32.456065 -6.338552 -13.198325 10.054420 35.741634 0.000000 0.000000 0.000000 7.125000 0.000000 0.000000 25.892676 64.655606 -12.717751
8.529247 20.854221 13.162719 -179.827633 -4.128366 179.590237 0.000000 0.000000 0.000000 -20.532336 -28.350293 -6.238458 1.460398 7.637484 21.618456 3.651845 7.754318 -39.334818 12.226057 18.484246 66.703205 0.000000 0.000000 0.000000 22.250725 36.766309 -0.892040 -0.875012 -5.963730 16.679318 -8.015352 2.126102 -53.900618 -12.367506 -18.541716 67.149118 2.545325 0.144158 15.713731 1.397865 0.806533 -2.289919 -0.112913 0.251954 -11.365364 -6.668825 -2.978247 -7.225554 3.465914 -3.593047 6.699589 2.154113 -1.821775 3.713215 0.000000 0.000000 0.000000 151.930887 -32.104794 102.077219 17.871112 -27.991684 4.488613 24.305981 -29.024581 48.823740 0.000000 0.000000 0.000000 -7.125000 0.000000 0.000000 -7.911944 -21.055251 -10.300874 0.000000 0.000000 0.000000 -146.704108 -37.848357 -88.493228 -21.551410 -32.466384 -6.343353 -13.539130 10.520351 35.629464 0.000000 0.000000 0.000000 7.125000 0.000000 0.000000 25.394822 64.650852 -12.454760
8.525232 20.781827 13.088410 -180.093242 -4.185070 179.385162 0.000000 0.000000 0.000000 -20.773547 -27.495834 -6.524760 1.421483 7.539394 21.323815 3.241200 9.147038 -38.065823 12.048901 18.410802 66.143263 0.000000 0.000000 0.000000 21.820932 37.280912 -0.899823 -0.892987 -6.022967 16.851038 -8.110909 2.358788 -54.198595 -12.351508 -18.535292 67.098838 2.455018 0.171460 16.029682 1.330598 0.834885 -2.363610 -0.143860 0.266655 -11.633383 -6.585004 -2.967746 -7.233769 3.337804 -3.582546 6.870814 2.095803 -1.822825 3.767820 0.000000 0.000000 0.000000 152.084940 -32.305792 101.604681 18.015344 -28.176622 4.556560 23.646776 -28.352404 48.757523 0.000000 0.000000 0.000000 -7.125000 0.000000 0.000000 -8.182557 -20.820094 -10.639495 0.000000 0.000000 0.000000 -147.282024 -37.973687 -88.171779 -21.530470 -32.442294 -6.332111 -13.234853 10.646423 35.536253 0.000000 0.000000 0.000000 7.125000 0.000000 0.000000 25.622629 64.485125 -12.475206
8.520582 20.706890 13.013625 -180.292895 -4.332008 179.205119 0.000000 0.000000 0.000000 -20.943317 -26.834238 -6.811300 1.379827 7.432444 21.003427 2.598595 11.733770 -36.436689 11.701213 18.257415 65.033895 0.000000 0.000000 0.000000 21.428329 37.754709 -0.948611 -0.914141 -6.091819 17.051127 -8.174879 2.771901 -54.354050 -12.354621 -18.536536 67.108594 2.473658 0.174207 16.219283 1.279661 0.845556 -2.378020 -0.213903 0.267331 -11.759634 -6.529671 -2.949696 -7.270870 3.239573 -3.555834 6.949104 2.053544 -1.813307 3.796359 0.000000 0.000000 0.000000 152.257589 -32.374679 101.210894 18.167324 -28.370580 4.628599 23.096518 -27.711496 48.689876 0.000000 0.000000 0.000000 -7.125000 0.000000 0.000000 -8.405808 -20.614101 -10.917245 0.000000 0.000000 0.000000 -147.910640 -37.931186 -87.883745 -21.485452 -32.390550 -6.307995 -13.076991 10.730537 35.336797 0.000000 0.000000 0.000000 7.125000 0.000000 0.000000 25.575364 64.266035 -12.321900
8.515589 20.630460 12.938546 -180.454930 -4.527423 179.038252 0.000000 0.000000 0.000000 -21.073206 -26.286155 -7.093499 1.336660 7.320528 20.668644 1.824470 14.979641 -34.598461 11.253440 18.056227 63.600996 0.000000 0.000000 0.000000 21.057292 38.199472 -1.021348 -0.937038 -6.165905 17.266666 -8.218289 3.278512 -54.420819 -12.368554 -18.542121 67.152343 2.552502 0.164449 16.337152 1.239037 0.847872 -2.358699 -0.304498 0.260981 -11.805305 -6.491083 -2.927974 -7.322006 3.158722 -3.520913 6.974806 2.020600 -1.798309 3.809781 0.000000 0.000000 0.000000 152.435906 -32.367777 100.854011 18.324724 -28.570914 4.703471 22.619909 -27.105288 48.620954 0.000000 0.000000 0.000000 -7.125000 0.000000 0.000000 -8.596848 -20.427187 -11.153631 0.000000 0.000000 0.000000 -148.569866 -37.794337 -87.620424 -21.427647 -32.324117 -6.277045 -12.999994 10.791012 35.081597 0.000000 0.000000 0.000000 7.125000 0.000000 0.000000 25.379465 64.020067 -12.075864
8.511018 20.550716 12.862322 -180.575381 -4.659919 178.843060 0.000000 0.000000 0.000000 -21.192668 -26.000656 -7.196222 1.293916 7.206563 20.329220 0.935235 18.101663 -32.385070 10.584969 17.716124 61.413734 0.000000 0.000000 0.000000 20.723984 38.387437 -1.142540 -0.959151 -6.236014 17.470814 -8.139718 3.521576 -54.100914 -12.391347 -18.551201 67.223996 2.622487 0.199349 16.388606 1.248797 0.908407 -2.305206 -0.349652 0.284886 -11.772629 -6.490404 -2.926924 -7.293468 3.110295 -3.517330 6.958623 2.004170 -1.798680 3.796686 0.000000 0.000000 0.000000 152.427938 -32.259927 100.225443 18.527143 -28.826393 4.800943 22.673710 -27.195224 48.532747 0.000000 0.000000 0.000000 -7.125000 0.000000 0.000000 -8.549470 -20.356770 -11.085005 0.000000 0.000000 0.000000 -149.329014 -37.606743 -87.604982 -21.392561 -32.283720 -6.258329 -12.909317 10.836721 34.954043 0.000000 0.000000 0.000000 7.125000 0.000000 0.000000 25.341045 63.883062 -11.975736
8.506397 20.467741 12.784896 -180.723628 -4.772106 178.648369 0.000000 0.000000 0.000000 -21.354326 -25.774256 -7.237943 1.254952 7.101663 20.017141 0.289154 20.198701 -30.574100 10.099178 17.464317 59.818083 0.000000 0.000000 0.000000 20.352787 38.441103 -1.289650 -0.977008 -6.292324 17.634921 -8.013818 3.166067 -53.715450 -12.368089 -18.541800 67.150707 2.650252 0.242838 16.435352 1.259408 0.972597 -2.265887 -0.370841 0.313399 -11.753751 -6.522529 -2.929881 -7.257243 3.082627 -3.520233 7.006120 2.000786 -1.803708 3.806655 0.000000 0.000000 0.000000 152.361973 -32.153630 99.525331 18.737976 -29.091313 4.903049 22.754531 -27.379318 48.472813 0.000000 0.000000 0.000000 -7.125000 0.000000 0.000000 -8.497686 -20.320109 -11.013499 0.000000 0.000000 0.000000 -150.094799 -37.450325 -87.677561 -21.374004 -32.262329 -6.248427 -12.728063 10.895428 34.898309 0.000000 0.000000 0.000000 7.125000 0.000000 0.000000 25.477040 63.785373 -11.986142
8.501702 20.380028 12.705708 -180.912643 -4.854506 178.454412 0.000000 0.000000 0.000000 -21.577870 -25.634533 -7.190195 1.221535 7.010059 19.745170 -0.000298 20.792431 -29.353347 9.881316 17.342014 59.090128 0.000000 0.000000 0.000000 19.926020 38.297798 -1.474774 -0.988621 -6.328398 17.740300 -7.818503 1.932651 -53.233832 -12.277287 -18.505294 66.864837 2.616093 0.298925 16.475193 1.271268 1.042150 -2.247357 -0.356881 0.348669 -11.755110 -6.602768 -2.938714 -7.209742 3.085407 -3.532649 7.147017 2.016537 -1.815568 3.850449 0.000000 0.000000 0.000000 152.210946 -32.049610 98.720288 18.961149 -29.370080 5.011948 22.874982 -27.701508 48.454343 0.000000 0.000000 0.000000 -7.125000 0.000000 0.000000 -8.439437 -20.332957 -10.937769 0.000000 0.000000 0.000000 -150.870317 -37.339634 -87.879239 -21.379687 -32.268815 -6.251454 -12.413964 10.973195 34.947910 0.000000 0.000000 0.000000 7.125000 0.000000 0.000000 25.868844 63.745346 -12.158664
8.496133 20.284299 12.624527 -181.082225 -4.975335 178.305636 0.000000 0.000000 0.000000 -21.779942 -25.564426 -7.148034 1.190401 6.923167 19.488064 -0.089403 20.651373 -28.507008 9.785345 17.287237 58.768310 0.000000 0.000000 0.000000 19.475304 38.033331 -1.736412 -0.998727 -6.359662 17.831591 -7.566833 0.246752 -52.679731 -12.137031 -18.447462 66.421954 2.626872 0.334948 16.439540 1.280747 1.091687 -2.238882 -0.365219 0.371940 -11.723337 -6.729839 -2.937248 -7.225202 3.115877 -3.526410 7.364282 2.051575 -1.819557 3.935343 0.000000 0.000000 0.000000 152.105780 -31.915518 98.122005 19.155952 -29.611584 5.107926 22.732318 -27.653123 48.281630 0.000000 0.000000 0.000000 -7.125000 0.000000 0.000000 -8.456683 -20.132194 -10.943073 0.000000 0.000000 0.000000 -151.677849 -37.225154 -88.214855 -21.345776 -32.229683 -6.233348 -12.337864 11.114507 35.011550 0.000000 0.000000 0.000000 7.125000 0.000000 0.000000 26.019347 63.781057 -12.255983
8.490327 20.184821 12.542692 -181.223244 -5.112629 178.170574 0.000000 0.000000 0.000000 -21.954489 -25.503428 -7.116964 1.159556 6.836250 19.231267 -0.131342 20.340005 -27.741778 9.691059 17.231769 58.449848 0.000000 0.000000 0.000000 19.053453 37.779745 -1.992170 -1.009067 -6.391545 17.924729 -7.317761 -1.435346 -52.149581 -11.996079 -18.388952 65.976470 2.669134 0.360980 16.367700 1.295770 1.133296 -2.231574 -0.382882 0.389801 -11.671504 -6.834059 -2.931609 -7.257724 3.116428 -3.513822 7.601080 2.072421 -1.821442 4.028663 0.000000 0.000000 0.000000 152.002413 -31.763916 97.578073 19.351001 -29.852278 5.204566 22.554152 -27.549812 48.036746 0.000000 0.000000 0.000000 -7.125000 0.000000 0.000000 -8.470763 -19.853465 -10.937512 0.000000 0.000000 0.000000 -152.481196 -37.116724 -88.613536 -21.312326 -32.191106 -6.215487 -12.322990 11.252959 35.101712 0.000000 0.000000 0.000000 7.125000 0.000000 0.000000 26.133096 63.856333 -12.359249
